# xmcd
#
# Track frame offsets:
#	150
#	21982
#	57367
#	83735
#	102570
#	132469
#	155301
#	176726
#	202043
#	227006
#	247443
#	279145
#	312282
#
# Disc length: 4462 seconds
#
# Revision: 0
# Processed by: cddbd v1.5.2PL0 Copyright (c) Steve Scherf et al.
# Submitted via: EZCDAudioConverter 2.1.7.1
#
DISCID=b9116c0d
DTITLE=The Verve - Urban Hymns 2/5
DYEAR=1900
DGENRE=
TTITLE0=Lord I Guess I'll Never Know
TTITLE1=Country Song
TTITLE2=Bitter Sweet Symphony [James Lavelle Remix]
TTITLE3=So Sister
TTITLE4=Echo Bass
TTITLE5=Three Steps
TTITLE6=The Drugs Don't Work [Original Demo]
TTITLE7=The Crab
TTITLE8=Stamped
TTITLE9=Never Wanna See You Cry
TTITLE10=MSG
TTITLE11=The Longest Day
TTITLE12=Lucky Man (Happiness More Or Less)
EXTD=
EXTT0=
EXTT1=
EXTT2=
EXTT3=
EXTT4=
EXTT5=
EXTT6=
EXTT7=
EXTT8=
EXTT9=
EXTT10=
EXTT11=
EXTT12=
PLAYORDER=
